<svg width="260" height="251" viewBox="0 0 260 251" fill="none" xmlns="http://www.w3.org/2000/svg">
<path fill-rule="evenodd" clip-rule="evenodd" d="M133.237 0.702778C166.347 -1.71977 197.429 17.8646 219.768 43.3546C241.096 67.6905 252.977 100.512 249.356 133.2C246.051 163.035 222.648 183.567 201.916 204.509C181.619 225.013 161.556 250.318 133.237 250.499C104.828 250.681 85.3733 224.474 63.7065 205.394C38.7906 183.453 1.29873 167.096 0.0333152 133.2C-1.24122 99.0594 34.3373 78.8188 58.0988 55.1834C81.0311 32.3728 101.559 3.02061 133.237 0.702778Z" fill="#4F772D"/>
<path d="M181.126 11.1865L181.579 11.1924C186.246 11.3133 190.695 13.2211 194.004 16.5303C197.313 19.8393 199.221 24.2876 199.342 28.9551L199.348 29.4082V221.595C199.342 226.423 197.42 231.053 194.004 234.469C190.589 237.885 185.958 239.807 181.126 239.812H88.8784C84.0471 239.807 79.4163 237.885 76.0005 234.469C72.6916 231.16 70.7853 226.711 70.6646 222.045L70.6587 221.593V29.4082C70.6642 24.5766 72.5849 19.9459 76.0005 16.5303C79.3095 13.2213 83.7579 11.3134 88.4253 11.1924L88.8784 11.1865H181.126ZM192.658 201.373L77.3452 201.375H76.3452V202.374L76.3433 221.593V221.594C76.3473 224.81 77.5868 227.9 79.8013 230.226L80.0181 230.448C82.3663 232.799 85.5519 234.119 88.8735 234.123H181.127C184.345 234.119 187.436 232.88 189.761 230.665L189.983 230.448C192.333 228.1 193.654 224.914 193.658 221.594V201.373H192.658ZM76.3452 195.689H193.658V47.625H76.3452V195.689ZM193.66 29.4053C193.656 26.0837 192.335 22.8975 189.984 20.5488C187.636 18.1988 184.451 16.8792 181.129 16.875H88.8755C85.5542 16.8792 82.3686 18.1985 80.02 20.5488C77.6693 22.8971 76.3494 26.0834 76.3452 29.4053V29.4062L76.3472 40.9365V41.9365H193.66V29.4053Z" fill="#F4F8C5" stroke="#1A1A1A" stroke-width="2"/>
<path d="M111.938 26.561C113.508 26.5613 114.781 27.8349 114.781 29.4058C114.781 30.9762 113.509 32.2493 111.938 32.2495C110.368 32.2495 109.095 30.9764 109.095 29.4058C109.095 27.8347 110.369 26.561 111.938 26.561Z" fill="#F4F8C5" stroke="#1A1A1A" stroke-width="2"/>
<path d="M131.155 26.5586H158.061C159.631 26.5586 160.905 27.833 160.905 29.4043C160.905 30.9747 159.632 32.2471 158.061 32.2471H131.155C129.585 32.2471 128.312 30.9747 128.311 29.4043C128.311 27.833 129.585 26.5586 131.155 26.5586Z" fill="#F4F8C5" stroke="#1A1A1A" stroke-width="2"/>
<path d="M135 207.218C137.618 207.218 140.137 208.193 142.069 209.941L142.447 210.301C144.42 212.276 145.53 214.956 145.53 217.748C145.53 220.367 144.554 222.886 142.806 224.816L142.447 225.194C140.472 227.17 137.793 228.278 135 228.278C132.208 228.275 129.53 227.165 127.557 225.19L127.197 224.812C125.448 222.882 124.472 220.366 124.468 217.748C124.468 214.956 125.578 212.276 127.553 210.301C129.527 208.327 132.206 207.218 135 207.218ZM135 212.904C132.325 212.907 130.16 215.075 130.155 217.746V217.748C130.155 219.707 131.335 221.473 133.145 222.223C134.955 222.972 137.039 222.559 138.425 221.173C139.81 219.788 140.222 217.705 139.473 215.896H139.474C138.726 214.085 136.959 212.904 135 212.904H135Z" fill="#F4F8C5" stroke="#1A1A1A" stroke-width="2"/>
<path d="M134.999 72.6865C147.981 72.7014 160.427 77.8659 169.609 87.0459C178.789 96.2273 183.954 108.675 183.969 121.656C183.968 134.645 178.809 147.098 169.624 156.281C160.441 165.465 147.987 170.624 135 170.624C122.011 170.624 109.557 165.464 100.374 156.281C91.1905 147.098 86.0312 134.644 86.0312 121.655C86.0312 108.669 91.1909 96.2143 100.374 87.0312V87.0303C109.557 77.8453 122.01 72.6868 134.999 72.6865ZM133.767 78.3936C123.984 78.673 114.589 82.2663 107.114 88.585L106.54 89.0703L106.847 89.7568C107.009 90.1195 107.094 90.5123 107.094 90.9062V103.438H116.78V90.9062C116.78 89.3365 118.054 88.0636 119.625 88.0635C121.196 88.0635 122.469 89.3357 122.469 90.9062V103.438H132.155V90.9062C132.155 89.3365 133.429 88.0637 135 88.0635C136.571 88.0635 137.844 89.3357 137.844 90.9062V105.281H137.833L137.836 106.285C137.837 106.727 137.736 107.163 137.54 107.558L137.356 107.928L130.311 122.021L130.192 122.257L130.206 122.521L132.419 163.958L132.423 164.027L132.437 164.097V164.099L132.589 164.877L133.382 164.905C133.913 164.925 134.456 164.938 135.001 164.938V164.938C138.386 164.939 141.76 164.545 145.054 163.758L145.773 163.586L145.82 162.848L147.529 135.628L147.57 134.967L146.979 134.671L141.416 131.888C140.383 131.371 139.765 130.284 139.851 129.133C139.909 128.371 140.628 119.56 143.627 110.266C145.127 105.618 147.182 100.894 149.978 97.0059C152.771 93.1207 156.267 90.1176 160.644 88.8008L162.536 88.2314L160.956 87.0439C153.134 81.1647 143.547 78.1144 133.767 78.3936ZM114.585 125.446L112.834 158.194L112.801 158.805L113.33 159.112C117.102 161.305 121.188 162.91 125.444 163.875L125.982 163.996L126.373 163.606L126.374 163.604L126.689 163.289L126.666 162.844L124.669 125.446L124.618 124.5H114.636L114.585 125.446ZM152.977 140.81L151.709 159.982L151.598 161.665L153.127 160.955C156.943 159.184 160.485 156.87 163.638 154.082L163.661 154.062L163.685 154.038L164.005 153.717L163.976 153.265L163.151 140.81L163.089 139.876H153.038L152.977 140.81ZM99.5879 96.7998C94.4589 104.071 91.7097 112.755 91.7188 121.654L91.7178 121.655C91.7138 133.779 96.8041 145.346 105.749 153.529L107.31 154.957L107.423 152.845L109.044 122.521L109.059 122.256L108.939 122.02L101.706 107.557H101.707C101.512 107.164 101.411 106.728 101.412 106.284L101.416 105.281H101.404V94.2236L99.5879 96.7998ZM168.594 136.941L168.596 136.974L169.14 145.214L169.332 148.139L170.968 145.706C175.595 138.819 178.128 130.745 178.273 122.459L178.28 121.656C178.29 112.756 175.541 104.071 170.411 96.7998L168.594 94.2246V136.941ZM161.55 94.5176C156.377 96.4881 152.364 102.156 149.387 110.916L149.383 110.927C147.675 116.149 146.476 121.526 145.801 126.978L145.794 127.039V127.721L146.347 127.997L151.646 130.646H151.647C152.611 131.127 153.219 132.113 153.219 133.189V134.189H162.907V133.188L162.905 95.4521V94.001L161.55 94.5176ZM128.782 109.125L110.47 109.127H108.852L109.575 110.574L113.419 118.261L113.695 118.813H114.313L124.939 118.812H125.557L125.833 118.259L129.677 110.572L130.4 109.125H128.782Z" fill="#F4F8C5" stroke="#1A1A1A" stroke-width="2"/>
</svg>
