<svg width="153" height="153" viewBox="0 0 153 153" fill="none" xmlns="http://www.w3.org/2000/svg">
<path fill-rule="evenodd" clip-rule="evenodd" d="M72.3547 0.0523635C97.1758 0.928645 115.202 18.8922 124.024 40.6991C134.853 67.4658 143.568 99.9242 120.199 118.314C92.775 139.896 51.4801 140.597 23.1313 120.097C-3.25143 101.018 -4.80049 65.7567 7.16587 36.5736C17.2188 12.0568 44.4013 -0.934502 72.3547 0.0523635Z" fill="#BCCB99"/>
<path d="M144.882 87.2256H29.5693C28.2956 87.2256 27.2622 88.2578 27.2622 89.5316V112.594H11.119C9.84528 112.594 8.81189 113.626 8.81189 114.9V144.882C8.81189 145.493 9.05565 146.08 9.48824 146.513C9.92084 146.944 10.5068 147.188 11.119 147.188H29.5693C30.1804 147.188 30.7675 146.944 31.2001 146.513C31.6327 146.08 31.8753 145.493 31.8753 144.882V142.576L80.0218 142.575C82.1069 142.574 84.1588 142.051 85.9899 141.054L108.569 128.738H144.882C145.494 128.738 146.081 128.495 146.513 128.063C146.945 127.63 147.188 127.043 147.188 126.432V89.5326C147.188 88.9204 146.945 88.3344 146.513 87.9018C146.081 87.4692 145.494 87.2266 144.882 87.2266L144.882 87.2256ZM27.2607 142.576H13.4238V117.208H27.2607V142.576ZM98.1064 91.8398L96.9529 96.4518L82.104 96.4529L80.9505 91.841L98.1064 91.8398ZM83.1249 110.29H98.1064L96.9529 114.902H82.104L81.4735 112.381L81.5788 112.276H81.5799C82.175 111.681 82.6935 111.013 83.1249 110.29ZM31.8729 91.8398H76.1962L77.0636 95.3121H77.0648C73.9851 94.471 70.688 95.1244 68.1635 97.0791L57.1086 105.677H31.872L31.8729 91.8398ZM31.8729 110.29H41.7343C38.7097 112.436 36.7983 115.818 36.5191 119.515H31.8729V110.29ZM83.7782 137.007V137.006C82.6258 137.635 81.3337 137.964 80.02 137.965H31.8735V124.127H37.4159C39.4484 124.125 41.0962 122.478 41.0985 120.446C41.1008 118.364 41.9282 116.369 43.3999 114.898C44.8716 113.427 46.8663 112.598 48.947 112.596H54.6165C55.3364 112.595 56.0356 112.356 56.6044 111.914L70.9976 100.719C72.4957 99.5521 74.4869 99.234 76.2746 99.876C78.061 100.517 79.3965 102.029 79.8107 103.881C80.225 105.734 79.6631 107.671 78.3196 109.013L64.1185 123.214C63.1927 124.14 62.9146 125.533 63.4159 126.742C63.9171 127.952 65.097 128.741 66.4074 128.741H98.9357L83.7782 137.007ZM142.571 124.127H69.7274L77.6695 116.185L78.0655 117.768H78.0666C78.323 118.794 79.2454 119.515 80.3039 119.515H98.7542C99.8117 119.515 100.735 118.794 100.992 117.768L102.86 110.29H142.572L142.571 124.127ZM142.571 105.677H84.5399C84.6303 104.096 84.35 102.517 83.7205 101.065H98.7525C99.8099 101.065 100.733 100.345 100.99 99.3174L102.859 91.8399H142.57L142.571 105.677Z" fill="#2F471B"/>
<path d="M61.8545 45.7119C60.02 45.7119 58.2597 46.4409 56.9622 47.7387C55.6644 49.0364 54.9354 50.7967 54.9354 52.631C54.9354 54.4652 55.6644 56.2257 56.9622 57.5232C58.2599 58.821 60.0202 59.55 61.8545 59.55C63.6887 59.55 65.4492 58.821 66.7467 57.5232C68.0445 56.2255 68.7735 54.4652 68.7735 52.631C68.7712 50.7965 68.0411 49.0374 66.7445 47.741C65.4478 46.4444 63.6887 45.7142 61.8545 45.7119ZM61.8545 54.9369C60.9218 54.9369 60.0806 54.375 59.7236 53.5133C59.3665 52.6515 59.5645 51.6593 60.2237 51.0001C60.8829 50.341 61.8751 50.143 62.7368 50.5001C63.5985 50.8571 64.1605 51.6982 64.1605 52.6309C64.1593 53.9035 63.1271 54.9358 61.8545 54.9369Z" fill="#2F471B"/>
<path d="M144.882 8.81253H126.432C125.158 8.81253 124.124 9.84592 124.124 11.1197V13.4256H75.9779C73.8928 13.4268 71.8409 13.9498 70.0098 14.9477L47.4319 27.2626H18.0383C16.7646 27.2626 15.7324 28.296 15.7324 29.5698V75.6948C15.7324 76.307 15.9761 76.893 16.4076 77.3256C16.8402 77.7582 17.4272 78.0019 18.0383 78.0019H105.677C106.289 78.0019 106.876 77.7581 107.308 77.3256C107.74 76.893 107.984 76.307 107.984 75.6948V47.9817C110.957 47.7562 113.752 46.4722 115.861 44.3641C117.969 42.2561 119.254 39.4627 119.481 36.4882H124.127V41.1013C124.127 41.7124 124.371 42.2995 124.803 42.7321C125.236 43.1647 125.822 43.4073 126.434 43.4073H144.884C145.496 43.4073 146.083 43.1647 146.515 42.7321C146.947 42.2995 147.19 41.7124 147.19 41.1013V11.1189C147.19 10.5067 146.947 9.92071 146.515 9.48811C146.083 9.05552 145.496 8.81177 144.884 8.81177L144.882 8.81253ZM103.368 73.3887H20.3437V31.875H86.2705L81.6586 36.4869H31.8744C30.6006 36.4869 29.5684 37.5203 29.5684 38.7941V41.1001H27.2613C25.9875 41.1001 24.9553 42.1323 24.9553 43.406V61.8563C24.9553 62.4674 25.1979 63.0545 25.6305 63.4871C26.0631 63.9197 26.6502 64.1623 27.2613 64.1623H29.5673V66.4683H29.5684C29.5684 67.0806 29.811 67.6665 30.2436 68.0991C30.6762 68.5317 31.2621 68.7754 31.8744 68.7754H91.8363C92.4485 68.7754 93.0345 68.5317 93.4671 68.0991C93.8997 67.6665 94.1423 67.0806 94.1423 66.4683V64.1623H96.4494C97.0605 64.1623 97.6476 63.9197 98.0802 63.4871C98.5117 63.0545 98.7554 62.4674 98.7554 61.8563V50.4282L101.852 48.0192H103.367L103.368 73.3887ZM73.667 57.2526C75.3401 59.3285 77.7606 60.6662 80.4076 60.9788C83.0558 61.2913 85.7212 60.5543 87.8314 58.9246L94.1417 54.0162V59.5519H91.8357C90.5619 59.5519 89.5297 60.5841 89.5297 61.8579V64.1638H34.1791V61.8579C34.1791 61.2456 33.9365 60.6597 33.5039 60.2271C33.0713 59.7945 32.4842 59.5519 31.8731 59.5519H29.5671V45.7138H31.8731C32.4842 45.7138 33.0713 45.4712 33.5039 45.0386C33.9365 44.606 34.1791 44.0201 34.1791 43.4078V41.1018H77.0434L74.417 43.7282C72.6477 45.494 71.5926 47.8515 71.4542 50.3476C71.3158 52.8437 72.1042 55.3028 73.6675 57.2528L73.667 57.2526ZM124.122 31.8765H118.58C116.547 31.8788 114.9 33.5256 114.897 35.5579C114.895 37.6396 114.067 39.6343 112.596 41.1062C111.125 42.5779 109.129 43.4053 107.049 43.4076H101.379C100.659 43.4087 99.9599 43.6491 99.3912 44.0897L84.9991 55.2855C83.4999 56.4516 81.5087 56.7698 79.7221 56.1289C77.9345 55.4869 76.6003 53.9751 76.1848 52.1222C75.7705 50.2695 76.3325 48.333 77.676 46.9906L91.877 32.7895C92.804 31.8637 93.081 30.4709 92.5797 29.2613C92.0785 28.0517 90.8986 27.2632 89.5894 27.2632H57.0611L72.2163 18.9959V18.997C73.3699 18.3688 74.6608 18.0392 75.9745 18.038H124.121L124.122 31.8765ZM142.572 38.7955H128.735V13.4262H142.572V38.7955Z" fill="#2F471B"/>
</svg>
