<svg width="126" height="125" viewBox="0 0 126 125" fill="none" xmlns="http://www.w3.org/2000/svg">
<path d="M85.749 74.3774C90.9646 66.9607 93.759 58.1125 93.7485 49.0454C93.7485 24.6714 73.9197 4.84131 49.5469 4.84131C25.1729 4.84131 5.34277 24.6711 5.34277 49.0454C5.34277 73.4194 25.1726 93.2471 49.5469 93.2471C58.6135 93.2576 67.4617 90.4634 74.8789 85.2476L107.533 117.901C108.971 119.358 110.932 120.18 112.978 120.185C115.025 120.192 116.99 119.381 118.437 117.934C119.885 116.487 120.695 114.521 120.689 112.475C120.683 110.428 119.861 108.468 118.405 107.029L85.749 74.3774ZM9.18652 49.0454C9.18652 26.7915 27.292 8.68652 49.5454 8.68652C71.7993 8.68652 89.9043 26.792 89.9043 49.0454C89.9043 71.2993 71.7988 89.4043 49.5454 89.4043C27.2915 89.4043 9.18652 71.2988 9.18652 49.0454ZM83.3857 77.4487L89.1086 83.1716L83.6726 88.6077L77.9497 82.8848C79.9152 81.233 81.7339 79.4143 83.3857 77.4487ZM115.686 115.186C114.965 115.907 113.987 116.311 112.968 116.311C111.948 116.311 110.971 115.907 110.25 115.186L86.3904 91.3264L91.8264 85.8904L115.686 109.749V109.749C116.407 110.47 116.811 111.448 116.811 112.467C116.811 113.487 116.407 114.465 115.686 115.186Z" fill="#2F471B"/>
<path d="M49.5454 14.4531C30.471 14.4531 14.9507 29.9722 14.9507 49.0479C14.9507 68.1223 30.4697 83.6426 49.5454 83.6426C68.6199 83.6426 84.1401 68.1235 84.1401 49.0479C84.1401 29.9734 68.6211 14.4531 49.5454 14.4531ZM49.5454 79.7974C41.3897 79.7974 33.5686 76.5576 27.8018 70.7908C22.0349 65.0239 18.7952 57.2029 18.7952 49.0471C18.7952 40.8914 22.0349 33.0703 27.8018 27.3035C33.5686 21.5366 41.3897 18.2969 49.5454 18.2969C57.7012 18.2969 65.5222 21.5366 71.2891 27.3035C77.0559 33.0703 80.2957 40.8914 80.2957 49.0471C80.2861 57.2002 77.0437 65.0154 71.2786 70.7805C65.5137 76.5454 57.6982 79.7881 49.5452 79.7976L49.5454 79.7974Z" fill="#2F471B"/>
<path d="M72.6094 56.7334H70.599C70.1432 51.8135 67.9811 47.2081 64.487 43.7149C60.9936 40.2208 56.3883 38.0586 51.4684 37.6028V33.6709C52.5299 33.6709 53.3901 32.8107 53.3901 31.7493C53.3901 30.6878 52.5299 29.8276 51.4684 29.8276H47.6251C46.5637 29.8276 45.7025 30.6878 45.7025 31.7493C45.7025 32.8107 46.5637 33.6709 47.6251 33.6709V37.6028C42.7052 38.0587 38.0998 40.2208 34.6056 43.7149C31.1122 47.2083 28.9503 51.8135 28.4945 56.7334H26.4842C25.4227 56.7334 24.5625 57.5937 24.5625 58.6551C24.5625 59.7166 25.4227 60.5768 26.4842 60.5768H72.6097C73.6711 60.5768 74.5313 59.7166 74.5313 58.6551C74.5313 57.5937 73.6711 56.7334 72.6097 56.7334H72.6094ZM49.5466 41.3582C53.7991 41.3639 57.9019 42.9346 61.0708 45.7698C64.2407 48.605 66.2559 52.5076 66.7336 56.7332H32.3586C32.8364 52.5074 34.8525 48.605 38.0225 45.7698C41.1914 42.9346 45.2942 41.3638 49.5466 41.3582Z" fill="#2F471B"/>
</svg>
