<svg width="151" height="150" viewBox="0 0 151 150" fill="none" xmlns="http://www.w3.org/2000/svg">
<path d="M102.799 89.2529C109.058 80.3528 112.411 69.7351 112.398 58.8545C112.398 29.6057 88.6036 5.80957 59.3562 5.80957C30.1074 5.80957 6.31133 29.6054 6.31133 58.8545C6.31133 88.1033 30.1071 111.896 59.3562 111.896C70.2362 111.909 80.854 108.556 89.7547 102.297L128.939 141.482C130.665 143.229 133.018 144.216 135.474 144.223C137.93 144.231 140.289 143.258 142.024 141.521C143.762 139.784 144.734 137.426 144.726 134.97C144.72 132.514 143.733 130.161 141.986 128.435L102.799 89.2529ZM10.9238 58.8545C10.9238 32.1498 32.6504 10.4238 59.3545 10.4238C86.0592 10.4238 107.785 32.1504 107.785 58.8545C107.785 85.5592 86.0586 107.285 59.3545 107.285C32.6498 107.285 10.9238 85.5586 10.9238 58.8545ZM99.9629 92.9385L106.83 99.806L100.307 106.329L93.4397 99.4617C95.7983 97.4796 97.9807 95.2972 99.9629 92.9385ZM138.723 138.223C137.857 139.088 136.684 139.573 135.461 139.573C134.238 139.573 133.065 139.088 132.199 138.223L103.568 109.592L110.092 103.068L138.723 131.698V131.699C139.588 132.565 140.073 133.738 140.073 134.961C140.073 136.184 139.588 137.357 138.723 138.223Z" fill="black"/>
<path d="M59.3545 17.3438C36.4651 17.3438 17.8408 35.9666 17.8408 58.8574C17.8408 81.7468 36.4637 100.371 59.3545 100.371C82.2439 100.371 100.868 81.7482 100.868 58.8574C100.868 35.9681 82.2453 17.3438 59.3545 17.3438ZM59.3545 95.7568C49.5676 95.7568 40.1823 91.8691 33.2621 84.9489C26.3419 78.0287 22.4542 68.6435 22.4542 58.8565C22.4542 49.0696 26.3419 39.6844 33.2621 32.7642C40.1823 25.8439 49.5676 21.9563 59.3545 21.9563C69.1414 21.9563 78.5267 25.8439 85.4469 32.7642C92.3671 39.6844 96.2548 49.0696 96.2548 58.8565C96.2433 68.6402 92.3524 78.0185 85.4343 84.9366C78.5164 91.8545 69.1379 95.7457 59.3542 95.7571L59.3545 95.7568Z" fill="black"/>
<path d="M87.0312 68.0801H84.6188C84.0718 62.1762 81.4773 56.6496 77.2844 52.4578C73.0923 48.2648 67.566 45.6703 61.6621 45.1233V40.4051C62.9358 40.4051 63.9681 39.3728 63.9681 38.0991C63.9681 36.8253 62.9358 35.7931 61.6621 35.7931H57.0502C55.7764 35.7931 54.743 36.8253 54.743 38.0991C54.743 39.3728 55.7764 40.4051 57.0502 40.4051V45.1233C51.1463 45.6704 45.6197 48.2648 41.4267 52.4578C37.2346 56.6499 34.6404 62.1762 34.0934 68.0801H31.681C30.4073 68.0801 29.375 69.1123 29.375 70.3861C29.375 71.6598 30.4073 72.692 31.681 72.692H87.0316C88.3053 72.692 89.3376 71.6598 89.3376 70.3861C89.3376 69.1123 88.3053 68.0801 87.0316 68.0801H87.0312ZM59.356 49.6298C64.4589 49.6366 69.3822 51.5215 73.185 54.9237C76.9889 58.326 79.407 63.0091 79.9804 68.0798H38.7304C39.3037 63.0088 41.723 58.326 45.5269 54.9237C49.3297 51.5215 54.253 49.6365 59.356 49.6298Z" fill="black"/>
</svg>
