<svg width="126" height="125" viewBox="0 0 126 125" fill="none" xmlns="http://www.w3.org/2000/svg">
<path d="M112.968 70.188C114.03 70.188 114.89 69.3269 114.89 68.2654C114.89 67.204 114.03 66.3438 112.968 66.3438H109.124C108.062 66.3438 107.202 67.204 107.202 68.2654C107.202 69.3269 108.062 70.188 109.124 70.188H112.968Z" fill="#2F471B"/>
<path d="M53.3345 23.938L55.2046 25.3408H55.2037C56.02 25.9521 56.2155 27.0956 55.65 27.9443L53.8247 30.6843H53.8237C53.5414 31.1087 53.4384 31.6275 53.5385 32.1272C53.6387 32.627 53.9334 33.0666 54.3568 33.3499C55.2399 33.9383 56.4339 33.6999 57.0223 32.8167L58.8477 30.0768V30.0758C59.665 28.8494 59.9816 27.3568 59.7327 25.9044C59.4838 24.452 58.6884 23.1503 57.5106 22.2662L55.6405 20.8634C54.8241 20.2511 54.6286 19.1086 55.1941 18.2599L57.0214 15.5199C57.6098 14.6358 57.3714 13.4428 56.4883 12.8543C55.6052 12.265 54.4112 12.5043 53.8227 13.3874L51.9974 16.1274H51.9965C51.1801 17.3539 50.8625 18.8464 51.1114 20.2988C51.3603 21.7513 52.1557 23.053 53.3345 23.938Z" fill="#2F471B"/>
<path d="M37.9585 23.938L39.8286 25.3408H39.8277C40.644 25.9521 40.8395 27.0956 40.274 27.9443L38.4487 30.6843H38.4477C38.1654 31.1087 38.0624 31.6275 38.1626 32.1272C38.2627 32.627 38.5574 33.0666 38.9808 33.3499C39.8639 33.9383 41.0579 33.6999 41.6463 32.8167L43.4717 30.0768L43.4726 30.0758C44.289 28.8494 44.6056 27.3568 44.3567 25.9044C44.1078 24.452 43.3124 23.1503 42.1346 22.2662L40.2645 20.8634C39.4491 20.2511 39.2526 19.1086 39.8181 18.2599L41.6454 15.5199C42.2338 14.6358 41.9954 13.4428 41.1123 12.8543C40.2292 12.265 39.0352 12.5043 38.4468 13.3874L36.6214 16.1274H36.6205C35.8041 17.3539 35.4875 18.8464 35.7354 20.2988C35.9844 21.7513 36.7797 23.053 37.9585 23.938Z" fill="#2F471B"/>
<path d="M68.4882 23.938L70.3584 25.3408H70.3574C71.1738 25.9521 71.3693 27.0956 70.8038 27.9443L68.9765 30.6843C68.6942 31.1087 68.5912 31.6275 68.6914 32.1272C68.7915 32.627 69.0852 33.0666 69.5096 33.3499C70.3927 33.9383 71.5858 33.6999 72.1752 32.8167L74.0005 30.0768V30.0758C74.8178 28.8494 75.1344 27.3568 74.8855 25.9044C74.6366 24.452 73.8412 23.1503 72.6625 22.2662L70.7923 20.8634H70.7933C69.9769 20.2511 69.7814 19.1086 70.347 18.2599L72.1723 15.5199H72.1732C72.7617 14.6368 72.5232 13.4428 71.6401 12.8543C70.757 12.265 69.564 12.5043 68.9746 13.3874L67.1493 16.1274C66.332 17.3539 66.0154 18.8464 66.2643 20.2988C66.5141 21.7513 67.3095 23.0539 68.4882 23.938Z" fill="#2F471B"/>
<path d="M84.1402 93.2495C82.6114 93.2495 81.1446 93.857 80.0633 94.9385C78.9818 96.0199 78.3752 97.4868 78.3752 99.0154C78.3752 100.545 78.9818 102.011 80.0633 103.092C81.1447 104.174 82.6116 104.781 84.1402 104.781C85.6698 104.781 87.1358 104.174 88.2171 103.092C89.2985 102.011 89.906 100.545 89.906 99.0154C89.9041 97.4866 89.2966 96.0217 88.2152 94.9404C87.1346 93.8599 85.6687 93.2514 84.1402 93.2495ZM84.1402 100.937C83.3629 100.937 82.662 100.469 82.3644 99.7506C82.0669 99.0325 82.2319 98.2066 82.7812 97.6564C83.3314 97.107 84.1573 96.9421 84.8754 97.2396C85.5936 97.5372 86.0618 98.2381 86.0618 99.0154C86.0609 100.077 85.2016 100.936 84.1402 100.937Z" fill="#2F471B"/>
<path d="M118.735 54.812H97.5937C96.5322 54.812 95.672 55.6722 95.672 56.7337C95.672 57.7951 96.5322 58.6553 97.5937 58.6553H118.735C119.796 58.6553 120.656 57.7951 120.656 56.7337C120.656 55.6722 119.796 54.812 118.735 54.812Z" fill="#2F471B"/>
<path d="M91.8281 79.7974C91.8281 80.3066 92.0313 80.7959 92.3908 81.1564C92.7513 81.5169 93.2405 81.719 93.7498 81.719H105.282C106.343 81.719 107.203 80.8588 107.203 79.7974C107.203 78.7359 106.343 77.8757 105.282 77.8757H93.7498C92.6883 77.8757 91.8281 78.7359 91.8281 79.7974Z" fill="#2F471B"/>
<path d="M118.735 108.625H93.5419C95.6562 106.564 97.0305 103.861 97.4538 100.938H99.5147C101.043 100.937 102.509 100.329 103.59 99.248C104.67 98.1666 105.279 96.7017 105.281 95.1731V91.3289C105.281 90.8196 105.078 90.3304 104.718 89.9699C104.357 89.6094 103.868 89.4072 103.359 89.4072H93.5417C92.0912 87.9853 90.3374 86.9104 88.4118 86.2629L89.7518 70.1887H101.009C102.07 70.1887 102.93 69.3275 102.93 68.2661C102.93 67.2046 102.07 66.3444 101.009 66.3444H90.0721L91.8202 45.3635C91.865 44.8275 91.6828 44.2982 91.3195 43.9024C90.9552 43.5067 90.4421 43.2816 89.9052 43.2816H76.4518V38.8175L84.8527 35.4566H84.8536C85.8388 35.0628 86.3185 33.9441 85.9237 32.9591C85.5298 31.973 84.4111 31.4942 83.4261 31.8881L73.817 35.7314C73.0874 36.0232 72.6087 36.7299 72.6087 37.5167V43.2825L59.1553 43.2816C58.6184 43.2816 58.1053 43.5066 57.741 43.9024C57.3776 44.2982 57.1955 44.8275 57.2403 45.3635L58.028 54.8134H49.5461V45.2033C49.5461 44.694 49.3439 44.2048 48.9834 43.8443C48.6229 43.4848 48.1337 43.2816 47.6245 43.2816H41.8586C41.8586 42.7724 41.6564 42.2832 41.2959 41.9227C40.9354 41.5622 40.4462 41.36 39.9369 41.36H32.2494C31.188 41.36 30.3278 42.2202 30.3278 43.2816V47.1249L24.5619 47.1258C23.5005 47.1258 22.6403 47.9861 22.6403 49.0475V62.5009C22.0823 62.5009 21.5531 62.7422 21.1878 63.1627C20.8235 63.5842 20.6585 64.1421 20.7377 64.6943L23.7579 85.841C21.2365 86.3646 18.9191 87.6025 17.0812 89.4067H7.26501C6.20356 89.4067 5.34241 90.2669 5.34241 91.3284V95.1726C5.34431 96.7013 5.95276 98.1663 7.03328 99.2476C8.11475 100.328 9.57966 100.937 11.1082 100.937H13.1701C13.5926 103.861 14.9668 106.563 17.0812 108.625H7.26504C6.20359 108.625 5.34243 109.486 5.34243 110.548C5.34243 111.609 6.20359 112.469 7.26504 112.469H118.735C119.796 112.469 120.656 111.609 120.656 110.548C120.656 109.486 119.796 108.625 118.735 108.625L118.735 108.625ZM101.438 93.2502V95.1719L101.437 95.1728C101.436 96.2333 100.577 97.0935 99.5153 97.0945H97.4535H97.4544C97.2627 95.7622 96.8717 94.4661 96.2929 93.2502L101.438 93.2502ZM87.8176 47.1247L87.4971 50.968H76.4527V47.1247H87.8176ZM75.3015 76.2483V76.2473C77.2241 74.8244 78.3627 72.5786 78.3752 70.1868C78.3733 69.1673 77.968 68.1907 77.2479 67.4697C76.527 66.7487 75.5504 66.3434 74.5309 66.3425H74.3917C73.9454 63.2812 72.4586 60.466 70.1812 58.3708C67.9048 56.2756 64.9761 55.0283 61.887 54.8383L61.8851 54.8116H87.1756L84.6122 85.5733C84.4548 85.5676 84.2974 85.5609 84.1391 85.5609C80.6221 85.56 77.2461 86.9399 74.7368 89.4052H74.1989C74.4183 88.7882 74.5299 88.1377 74.5299 87.4835V84.1962C75.7639 83.067 76.463 81.4686 76.4515 79.796C76.4563 78.521 76.0529 77.2775 75.3004 76.2474L75.3015 76.2483ZM72.6093 47.1247V50.968H61.5649L61.2445 47.1247H72.6093ZM41.8598 47.1247H45.7031V55.375V55.374C44.3307 55.7851 43.0336 56.4126 41.8598 57.2346V47.1247ZM40.2119 65.9931V65.9922C40.723 63.9017 41.9208 62.043 43.6137 60.7126C45.3055 59.3832 47.395 58.6584 49.5476 58.6556H61.0783C63.2927 58.6584 65.4384 59.4242 67.1542 60.8252C68.8699 62.2252 70.0495 64.1745 70.496 66.3432H40.2128L40.2119 65.9931ZM74.5307 70.1845V70.1874C74.5307 72.3065 72.6834 74.0307 70.4128 74.0307C69.0424 74.0459 67.7521 73.3907 66.9567 72.2759C66.5972 71.759 66.0078 71.4519 65.3794 71.4519C64.7499 71.4519 64.1606 71.759 63.802 72.2759C62.9961 73.3783 61.7115 74.0307 60.3459 74.0307C58.9793 74.0307 57.6958 73.3783 56.8899 72.2759C56.5303 71.759 55.941 71.4519 55.3125 71.4519C54.6831 71.4519 54.0937 71.759 53.7351 72.2759C52.9293 73.3783 51.6447 74.0307 50.2791 74.0307C48.9125 74.0307 47.629 73.3783 46.823 72.2759C46.4635 71.759 45.8741 71.4519 45.2457 71.4519C44.6163 71.4519 44.0269 71.759 43.6683 72.2759C42.872 73.3907 41.5817 74.0459 40.2122 74.0307C37.9406 74.0307 36.0934 72.3064 36.0934 70.1874L74.5307 70.1845ZM41.8598 93.2492H71.9892C71.4113 94.4652 71.0193 95.7612 70.8286 97.0935H39.7983C39.6076 95.7612 39.2166 94.465 38.6377 93.2492H41.8598ZM39.9382 87.4834V85.5617H70.6877V87.4843C70.6858 88.5448 69.8265 89.405 68.7651 89.406H41.8583C40.7978 89.405 39.9376 88.5448 39.9367 87.4843L39.9382 87.4834ZM71.0368 81.7175L39.5866 81.7185C38.7197 81.7185 38.014 80.8563 38.014 79.7968C38.014 78.7373 38.7197 77.8751 39.5866 77.8751V77.8494C39.7926 77.8647 40.0005 77.8751 40.2113 77.8751C42.0356 77.879 43.8084 77.2705 45.2447 76.1452C46.6828 77.2667 48.4547 77.8751 50.2781 77.8751C52.1016 77.8751 53.8736 77.2667 55.3116 76.1452C56.7497 77.2657 58.5208 77.8751 60.345 77.8751C62.1685 77.8751 63.9395 77.2657 65.3775 76.1452C66.8137 77.2705 68.5867 77.879 70.411 77.8751C70.6208 77.8751 70.8287 77.8647 71.0356 77.8494V77.8751C71.9025 77.8751 72.6082 78.7373 72.6082 79.7968C72.6082 80.8563 71.9025 81.7185 71.0356 81.7185L71.0368 81.7175ZM34.1716 45.2014H38.0148V61.3423C37.7897 61.7161 37.5828 62.1014 37.394 62.4981L34.1716 62.4991V45.2014ZM26.4841 50.9673H30.3273V62.498L26.4841 62.499V50.9673ZM36.0932 66.3425C35.0747 66.3435 34.0971 66.7488 33.3771 67.4697C32.6561 68.1907 32.2508 69.1673 32.2499 70.1868C32.2613 72.5786 33.4009 74.8245 35.3236 76.2473C34.5702 77.2773 34.1668 78.5209 34.1716 79.7959C34.1611 81.4687 34.8592 83.0669 36.0932 84.1961V87.4834C36.0932 88.1376 36.2048 88.7881 36.4241 89.4051H35.8863C33.6537 87.2135 30.7259 85.8716 27.6084 85.6123L24.8562 66.3423L36.0932 66.3425ZM13.1706 97.092H11.1087C10.0482 97.0911 9.18804 96.2308 9.18709 95.1703V93.2487L14.3311 93.2477C13.7522 94.4637 13.3613 95.7597 13.1706 97.092ZM26.4838 108.623C23.9355 108.623 21.4914 107.611 19.6889 105.809C17.8874 104.006 16.8747 101.563 16.8747 99.0136C16.8747 96.4653 17.8875 94.0212 19.6889 92.2187C21.4913 90.4172 23.9357 89.4045 26.4838 89.4045C29.0319 89.4045 31.4762 90.4173 33.2787 92.2187C35.0812 94.0212 36.0929 96.4655 36.0929 99.0136C36.0901 101.562 35.0773 104.004 33.2758 105.806C31.4743 107.607 29.0319 108.62 26.4838 108.623ZM35.8862 108.623C38.0005 106.561 39.3747 103.858 39.7973 100.935H70.8276C71.25 103.858 72.6252 106.561 74.7387 108.623H35.8862ZM84.1405 108.623C81.5922 108.623 79.1481 107.611 77.3456 105.809C75.5441 104.006 74.5314 101.563 74.5314 99.0136C74.5314 96.4653 75.5442 94.0212 77.3456 92.2187C79.1481 90.4172 81.5925 89.4045 84.1405 89.4045C86.6896 89.4045 89.1339 90.4173 90.9355 92.2187C92.7379 94.0212 93.7497 96.4655 93.7497 99.0136C93.7468 101.562 92.734 104.004 90.9325 105.806C89.1311 107.607 86.6886 108.62 84.1405 108.623Z" fill="#2F471B"/>
<path d="M26.4839 93.2495C24.9551 93.2495 23.4883 93.857 22.407 94.9385C21.3255 96.0199 20.718 97.4868 20.718 99.0154C20.718 100.545 21.3255 102.011 22.407 103.092C23.4885 104.174 24.9553 104.781 26.4839 104.781C28.0136 104.781 29.4795 104.174 30.5608 103.092C31.6423 102.011 32.2498 100.545 32.2498 99.0154C32.2478 97.4866 31.6394 96.0217 30.5589 94.9404C29.4784 93.8599 28.0124 93.2514 26.4839 93.2495ZM26.4839 100.937C25.7066 100.937 25.0057 100.469 24.7082 99.7506C24.4106 99.0325 24.5756 98.2066 25.1249 97.6564C25.6742 97.107 26.501 96.9421 27.2192 97.2396C27.9373 97.5372 28.4055 98.2381 28.4055 99.0154C28.4046 100.077 27.5453 100.936 26.4839 100.937Z" fill="#2F471B"/>
</svg>
