<svg width="151" height="150" viewBox="0 0 151 150" fill="none" xmlns="http://www.w3.org/2000/svg">
<path d="M135.462 84.2255C136.736 84.2255 137.768 83.1922 137.768 81.9184C137.768 80.6447 136.736 79.6124 135.462 79.6124H130.849C129.575 79.6124 128.543 80.6447 128.543 81.9184C128.543 83.1922 129.575 84.2255 130.849 84.2255H135.462Z" fill="black"/>
<path d="M63.9013 28.7256L66.1455 30.409H66.1444C67.124 31.1425 67.3586 32.5147 66.68 33.5332L64.4896 36.8212H64.4884C64.1497 37.3305 64.0261 37.953 64.1462 38.5527C64.2664 39.1524 64.62 39.68 65.1281 40.0198C66.1879 40.7259 67.6207 40.4398 68.3268 39.3801L70.5172 36.0921V36.091C71.498 34.6193 71.8779 32.8282 71.5792 31.0853C71.2805 29.3424 70.3261 27.7803 68.9127 26.7195L66.6685 25.0361C65.6889 24.3013 65.4543 22.9303 66.1329 21.9118L68.3256 18.6238C69.0318 17.563 68.7456 16.1313 67.6859 15.4252C66.6262 14.718 65.1934 15.0052 64.4873 16.0649L62.2969 19.3529H62.2957C61.3161 20.8246 60.935 22.6157 61.2337 24.3586C61.5324 26.1015 62.4868 27.6635 63.9013 28.7256Z" fill="black"/>
<path d="M45.4502 28.7256L47.6944 30.409H47.6933C48.6729 31.1425 48.9075 32.5147 48.2288 33.5332L46.0384 36.8212H46.0373C45.6985 37.3305 45.5749 37.953 45.6951 38.5527C45.8152 39.1524 46.1689 39.68 46.677 40.0198C47.7367 40.7259 49.1695 40.4398 49.8756 39.3801L52.066 36.0921L52.0672 36.091C53.0468 34.6193 53.4267 32.8282 53.128 31.0853C52.8294 29.3424 51.8749 27.7803 50.4616 26.7195L48.2174 25.0361C47.2389 24.3013 47.0032 22.9303 47.6818 21.9118L49.8745 18.6238C50.5806 17.563 50.2945 16.1313 49.2348 15.4252C48.175 14.718 46.7422 15.0052 46.0361 16.0649L43.8457 19.3529H43.8446C42.8649 20.8246 42.485 22.6157 42.7826 24.3586C43.0812 26.1015 44.0357 27.6635 45.4502 28.7256Z" fill="black"/>
<path d="M82.0859 28.7256L84.3301 30.409H84.329C85.3086 31.1425 85.5432 32.5147 84.8646 33.5332L82.6719 36.8212C82.3331 37.3305 82.2095 37.953 82.3297 38.5527C82.4498 39.1524 82.8023 39.68 83.3116 40.0198C84.3713 40.7259 85.803 40.4398 86.5102 39.3801L88.7006 36.0921V36.091C89.6814 34.6193 90.0613 32.8282 89.7626 31.0853C89.464 29.3424 88.5095 27.7803 87.095 26.7195L84.8508 25.0361H84.852C83.8723 24.3013 83.6378 22.9303 84.3164 21.9118L86.5068 18.6238H86.5079C87.2141 17.5641 86.9279 16.1313 85.8682 15.4252C84.8085 14.718 83.3768 15.0052 82.6696 16.0649L80.4792 19.3529C79.4984 20.8246 79.1185 22.6157 79.4172 24.3586C79.717 26.1015 80.6714 27.6647 82.0859 28.7256Z" fill="black"/>
<path d="M100.868 111.899C99.0337 111.899 97.2734 112.628 95.9759 113.926C94.6781 115.224 93.9503 116.984 93.9503 118.818C93.9503 120.654 94.6781 122.413 95.9759 123.711C97.2736 125.008 99.0339 125.738 100.868 125.738C102.704 125.738 104.463 125.009 105.76 123.711C107.058 122.413 107.787 120.654 107.787 118.818C107.785 116.984 107.056 115.226 105.758 113.929C104.462 112.632 102.702 111.902 100.868 111.899ZM100.868 121.124C99.9355 121.124 99.0943 120.562 98.7373 119.701C98.3802 118.839 98.5782 117.848 99.2374 117.188C99.8977 116.528 100.889 116.33 101.751 116.688C102.612 117.045 103.174 117.886 103.174 118.818C103.173 120.092 102.142 121.123 100.868 121.124Z" fill="black"/>
<path d="M142.382 65.7744H117.012C115.739 65.7744 114.707 66.8067 114.707 68.0804C114.707 69.3541 115.739 70.3864 117.012 70.3864H142.382C143.656 70.3864 144.688 69.3541 144.688 68.0804C144.688 66.8067 143.656 65.7744 142.382 65.7744Z" fill="black"/>
<path d="M110.094 95.7568C110.094 96.3679 110.338 96.955 110.769 97.3876C111.202 97.8202 111.789 98.0628 112.4 98.0628H126.238C127.512 98.0628 128.544 97.0305 128.544 95.7568C128.544 94.483 127.512 93.4508 126.238 93.4508H112.4C111.126 93.4508 110.094 94.483 110.094 95.7568Z" fill="black"/>
<path d="M142.382 130.351H112.15C114.688 127.876 116.337 124.633 116.845 121.126H119.318C121.152 121.124 122.911 120.394 124.208 119.098C125.504 117.8 126.234 116.042 126.237 114.208V109.595C126.237 108.984 125.994 108.396 125.561 107.964C125.129 107.531 124.542 107.289 123.931 107.289H112.15C110.409 105.582 108.305 104.292 105.994 103.516L107.602 84.2265H121.111C122.384 84.2265 123.417 83.1931 123.417 81.9194C123.417 80.6456 122.384 79.6134 121.111 79.6134H107.987L110.084 54.4362C110.138 53.7931 109.919 53.1579 109.483 52.683C109.046 52.208 108.431 51.938 107.786 51.938H91.6422V46.581L101.723 42.548H101.724C102.907 42.0754 103.482 40.733 103.008 39.5509C102.536 38.3676 101.193 37.7931 100.011 38.2658L88.4804 42.8777C87.6049 43.2279 87.0304 44.0759 87.0304 45.02V51.9391L70.8864 51.9379C70.2421 51.9379 69.6264 52.208 69.1892 52.6829C68.7532 53.1579 68.5346 53.793 68.5884 54.4362L69.5337 65.7761H59.3554V54.244C59.3554 53.6329 59.1128 53.0458 58.6802 52.6132C58.2476 52.1818 57.6605 51.938 57.0494 51.938H50.1304C50.1304 51.3269 49.8878 50.7398 49.4552 50.3072C49.0226 49.8746 48.4355 49.632 47.8244 49.632H38.5994C37.3256 49.632 36.2934 50.6643 36.2934 51.938V56.5499L29.3743 56.5511C28.1006 56.5511 27.0684 57.5833 27.0684 58.8571V75.0011C26.3989 75.0011 25.7637 75.2906 25.3254 75.7953C24.8883 76.3011 24.6903 76.9706 24.7853 77.6332L28.4096 103.009C25.3838 103.638 22.6029 105.123 20.3975 107.288H8.61807C7.34433 107.288 6.31094 108.32 6.31094 109.594V114.207C6.31323 116.042 7.04337 117.8 8.33999 119.097C9.63775 120.394 11.3957 121.124 13.2299 121.125H15.7041C16.2111 124.633 17.8602 127.876 20.3975 130.35H8.6181C7.34436 130.35 6.31097 131.383 6.31097 132.657C6.31097 133.931 7.34436 134.963 8.6181 134.963H142.382C143.655 134.963 144.688 133.931 144.688 132.657C144.688 131.383 143.655 130.35 142.382 130.35L142.382 130.351ZM121.626 111.9V114.206L121.624 114.207C121.623 115.48 120.592 116.512 119.318 116.513H116.844H116.845C116.615 114.915 116.146 113.359 115.451 111.9L121.626 111.9ZM105.281 56.5497L104.897 61.1616H91.6433V56.5497H105.281ZM90.2618 91.498V91.4968C92.5689 89.7894 93.9353 87.0944 93.9503 84.2242C93.948 83.0008 93.4616 81.8289 92.5976 80.9637C91.7324 80.0985 90.5605 79.6122 89.3371 79.611H89.1701C88.6345 75.9375 86.8503 72.5593 84.1175 70.045C81.3858 67.5307 77.8714 66.034 74.1645 65.806L74.1622 65.774H104.511L101.435 102.688C101.246 102.681 101.057 102.673 100.867 102.673C96.6465 102.672 92.5954 104.328 89.5842 107.286H88.9388C89.202 106.546 89.3359 105.765 89.3359 104.98V101.035C90.8168 99.6805 91.6556 97.7624 91.6419 95.7553C91.6476 94.2252 91.1635 92.733 90.2606 91.497L90.2618 91.498ZM87.0312 56.5497V61.1616H73.7779L73.3934 56.5497H87.0312ZM50.1318 56.5497H54.7437V66.45V66.4489C53.0969 66.9421 51.5404 67.6951 50.1318 68.6816V56.5497ZM48.1543 79.1918V79.1907C48.7677 76.6821 50.2051 74.4516 52.2365 72.8552C54.2667 71.2599 56.774 70.3902 59.3571 70.3867H73.194C75.8513 70.3902 78.4262 71.3091 80.4851 72.9902C82.5439 74.6702 83.9595 77.0095 84.4953 79.6119H48.1555L48.1543 79.1918ZM89.3369 84.2215V84.2249C89.3369 86.7678 87.1202 88.8368 84.3954 88.8368C82.7509 88.8552 81.2026 88.0689 80.2481 86.7311C79.8167 86.1109 79.1095 85.7424 78.3553 85.7424C77.6 85.7424 76.8927 86.1109 76.4624 86.7311C75.4954 88.0541 73.9539 88.8368 72.3152 88.8368C70.6752 88.8368 69.135 88.0541 68.1679 86.7311C67.7365 86.1109 67.0292 85.7424 66.2751 85.7424C65.5198 85.7424 64.8125 86.1109 64.3822 86.7311C63.4152 88.0541 61.8737 88.8368 60.235 88.8368C58.595 88.8368 57.0548 88.0541 56.0877 86.7311C55.6563 86.1109 54.949 85.7424 54.1949 85.7424C53.4396 85.7424 52.7323 86.1109 52.302 86.7311C51.3464 88.0689 49.798 88.8552 48.1548 88.8368C45.4288 88.8368 43.2121 86.7678 43.2121 84.2249L89.3369 84.2215ZM50.1318 111.899H86.2871C85.5936 113.358 85.1232 114.913 84.8943 116.512H47.658C47.4291 114.913 46.9599 113.358 46.2653 111.899H50.1318ZM47.8258 104.98V102.674H84.7252V104.981C84.723 106.254 83.6919 107.286 82.4181 107.287H50.13C48.8574 107.286 47.8252 106.254 47.8241 104.981L47.8258 104.98ZM85.1442 98.061L47.404 98.0622C46.3637 98.0622 45.5168 97.0277 45.5168 95.7562C45.5168 94.4848 46.3637 93.4502 47.404 93.4502V93.4193C47.6512 93.4376 47.9006 93.4502 48.1536 93.4502C50.3428 93.4548 52.4702 92.7247 54.1937 91.3743C55.9195 92.7201 58.0456 93.4502 60.2338 93.4502C62.422 93.4502 64.5484 92.7201 66.274 91.3743C67.9997 92.7189 70.125 93.4502 72.3141 93.4502C74.5022 93.4502 76.6275 92.7189 78.3531 91.3743C80.0765 92.7247 82.2041 93.4548 84.3932 93.4502C84.645 93.4502 84.8944 93.4376 85.1428 93.4193V93.4502C86.1831 93.4502 87.0299 94.4848 87.0299 95.7562C87.0299 97.0277 86.1831 98.0622 85.1428 98.0622L85.1442 98.061ZM40.9059 54.2417H45.5178V73.6108C45.2477 74.0593 44.9994 74.5217 44.7728 74.9978L40.9059 74.9989V54.2417ZM31.6809 61.1608H36.2928V74.9977L31.6809 74.9988V61.1608ZM43.2119 79.6111C41.9896 79.6122 40.8166 80.0986 39.9526 80.9637C39.0874 81.8289 38.601 83.0008 38.5999 84.2242C38.6136 87.0944 39.9812 89.7894 42.2884 91.4968C41.3843 92.7328 40.9002 94.2251 40.9059 95.7552C40.8933 97.7625 41.731 99.6803 43.2119 101.035V104.98C43.2119 105.765 43.3458 106.546 43.609 107.286H42.9636C40.2845 104.656 36.7711 103.046 33.0302 102.735L29.7276 79.6108L43.2119 79.6111ZM15.7047 116.51H13.2305C11.9579 116.509 10.9257 115.477 10.9246 114.204V111.898L17.0974 111.897C16.4027 113.356 15.9336 114.912 15.7047 116.51ZM31.6806 130.347C28.6226 130.347 25.6897 129.133 23.5267 126.97C21.3649 124.807 20.1497 121.875 20.1497 118.816C20.1497 115.758 21.365 112.826 23.5267 110.663C25.6897 108.501 28.6229 107.285 31.6806 107.285C34.7383 107.285 37.6715 108.501 39.8345 110.663C41.9975 112.825 43.2116 115.759 43.2116 118.816C43.2082 121.874 41.9928 124.805 39.831 126.967C37.6692 129.129 34.7383 130.344 31.6806 130.347ZM42.9634 130.347C45.5006 127.873 47.1497 124.63 47.6568 121.122H84.8931C85.4001 124.63 87.0503 127.873 89.5865 130.347H42.9634ZM100.869 130.347C97.8107 130.347 94.8778 129.133 92.7148 126.97C90.553 124.807 89.3378 121.875 89.3378 118.816C89.3378 115.758 90.5531 112.826 92.7148 110.663C94.8777 108.501 97.811 107.285 100.869 107.285C103.928 107.285 106.861 108.501 109.023 110.663C111.186 112.825 112.4 115.759 112.4 118.816C112.396 121.874 111.181 124.805 109.019 126.967C106.857 129.129 103.926 130.344 100.869 130.347Z" fill="black"/>
<path d="M31.6807 111.899C29.8462 111.899 28.0859 112.628 26.7884 113.926C25.4906 115.224 24.7616 116.984 24.7616 118.818C24.7616 120.654 25.4906 122.413 26.7884 123.711C28.0861 125.009 29.8464 125.738 31.6807 125.738C33.5163 125.738 35.2754 125.009 36.573 123.711C37.8707 122.413 38.5997 120.654 38.5997 118.818C38.5974 116.984 37.8673 115.226 36.5707 113.929C35.274 112.632 33.5149 111.902 31.6807 111.899ZM31.6807 121.124C30.748 121.124 29.9068 120.562 29.5498 119.701C29.1927 118.839 29.3907 117.848 30.0499 117.188C30.7091 116.528 31.7013 116.33 32.563 116.688C33.4247 117.045 33.9867 117.886 33.9867 118.818C33.9855 120.092 32.9544 121.123 31.6807 121.124Z" fill="black"/>
</svg>
