<svg width="172" height="52" viewBox="0 0 172 52" fill="none" xmlns="http://www.w3.org/2000/svg">
<path d="M13.9 3.40001L17.9 7.2C19.4 8.6 20.2 10.5 20.2 12.6C20.2 14.6 21 16.5 22.4 17.9L22.9 18.4L27.5 3.5" fill="#1A1A1A"/>
<path d="M0.300003 16.7L5.8 16.5C7.8 16.4 9.8 17.2 11.2 18.6C12.6 20 14.5 20.7 16.5 20.7H17.2L9.8 7" fill="#1A1A1A"/>
<path d="M0.300003 35.7L4 31.7C5.4 30.2 7.3 29.3 9.3 29.3C11.3 29.3 13.1 28.4 14.5 27L15 26.5L0 22.2" fill="#1A1A1A"/>
<path d="M13.9 48.9L13.6 43.4C13.5 41.4 14.2 39.4 15.6 37.9C16.9 36.5 17.7 34.5 17.6 32.6V31.9L4 39.6" fill="#1A1A1A"/>
<path d="M32.9 48.5L28.8 44.9C27.3 43.6 26.4 41.7 26.3 39.6C26.2 37.6 25.3 35.8 23.9 34.4L23.4 33.9L19.4 49" fill="#1A1A1A"/>
<path d="M45.9 34.6L40.4 35C38.4 35.2 36.4 34.5 34.9 33.1C33.4 31.8 31.5 31.1 29.5 31.2H28.8L36.8 44.6" fill="#1A1A1A"/>
<path d="M45 15.7L41.5 19.9C40.2 21.4 38.3 22.4 36.3 22.5C34.3 22.6 32.5 23.5 31.2 25L30.8 25.5L46 29.1" fill="#1A1A1A"/>
<path d="M30.9 3L31.4 8.5C31.6 10.5 31 12.5 29.6 14.1C28.3 15.6 27.7 17.5 27.8 19.5L27.9 20.2L41.1 11.9" fill="#1A1A1A"/>
<path d="M71.584 25.48C72.8853 25.7573 73.9307 26.408 74.72 27.432C75.5093 28.4347 75.904 29.5867 75.904 30.888C75.904 32.7653 75.2427 34.2587 73.92 35.368C72.6187 36.456 70.7947 37 68.448 37H57.984V14.536H68.096C70.3787 14.536 72.16 15.0587 73.44 16.104C74.7413 17.1493 75.392 18.568 75.392 20.36C75.392 21.6827 75.04 22.7813 74.336 23.656C73.6533 24.5307 72.736 25.1387 71.584 25.48ZM63.456 23.624H67.04C67.936 23.624 68.6187 23.432 69.088 23.048C69.5787 22.6427 69.824 22.056 69.824 21.288C69.824 20.52 69.5787 19.9333 69.088 19.528C68.6187 19.1227 67.936 18.92 67.04 18.92H63.456V23.624ZM67.488 32.584C68.4053 32.584 69.1093 32.3813 69.6 31.976C70.112 31.5493 70.368 30.9413 70.368 30.152C70.368 29.3627 70.1013 28.744 69.568 28.296C69.056 27.848 68.3413 27.624 67.424 27.624H63.456V32.584H67.488ZM92.7097 27.784C92.7097 28.296 92.6777 28.8293 92.6138 29.384H80.2297C80.3151 30.4933 80.6671 31.3467 81.2857 31.944C81.9257 32.52 82.7044 32.808 83.6217 32.808C84.9871 32.808 85.9364 32.232 86.4697 31.08H92.2938C91.9951 32.2533 91.4511 33.3093 90.6618 34.248C89.8938 35.1867 88.9231 35.9227 87.7498 36.456C86.5764 36.9893 85.2644 37.256 83.8137 37.256C82.0644 37.256 80.5071 36.8827 79.1417 36.136C77.7764 35.3893 76.7097 34.3227 75.9417 32.936C75.1737 31.5493 74.7897 29.928 74.7897 28.072C74.7897 26.216 75.1631 24.5947 75.9097 23.208C76.6777 21.8213 77.7444 20.7547 79.1097 20.008C80.4751 19.2613 82.0431 18.888 83.8137 18.888C85.5417 18.888 87.0778 19.2507 88.4218 19.976C89.7657 20.7013 90.8111 21.736 91.5578 23.08C92.3257 24.424 92.7097 25.992 92.7097 27.784ZM87.1097 26.344C87.1097 25.4053 86.7897 24.6587 86.1497 24.104C85.5097 23.5493 84.7097 23.272 83.7498 23.272C82.8324 23.272 82.0537 23.5387 81.4137 24.072C80.7951 24.6053 80.4111 25.3627 80.2617 26.344H87.1097ZM97.8685 13.32V37H92.3965V13.32H97.8685ZM104.106 13.32V37H98.634V13.32H104.106ZM123.112 19.144L111.912 45.48H106.024L110.12 36.392L102.856 19.144H108.968L113.096 30.312L117.192 19.144H123.112ZM136.802 21.64C136.397 20.8933 135.81 20.328 135.042 19.944C134.296 19.5387 133.41 19.336 132.386 19.336C130.616 19.336 129.197 19.9227 128.13 21.096C127.064 22.248 126.53 23.7947 126.53 25.736C126.53 27.8053 127.085 29.4267 128.194 30.6C129.325 31.752 130.872 32.328 132.834 32.328C134.178 32.328 135.309 31.9867 136.226 31.304C137.165 30.6213 137.848 29.64 138.274 28.36H131.33V24.328H143.234V29.416C142.829 30.7813 142.136 32.0507 141.154 33.224C140.194 34.3973 138.968 35.3467 137.474 36.072C135.981 36.7973 134.296 37.16 132.418 37.16C130.2 37.16 128.216 36.68 126.466 35.72C124.738 34.7387 123.384 33.384 122.402 31.656C121.442 29.928 120.962 27.9547 120.962 25.736C120.962 23.5173 121.442 21.544 122.402 19.816C123.384 18.0667 124.738 16.712 126.466 15.752C128.194 14.7707 130.168 14.28 132.386 14.28C135.074 14.28 137.336 14.9307 139.17 16.232C141.026 17.5333 142.253 19.336 142.85 21.64H136.802ZM151.193 37.256C149.444 37.256 147.865 36.8827 146.457 36.136C145.071 35.3893 143.972 34.3227 143.161 32.936C142.372 31.5493 141.977 29.928 141.977 28.072C141.977 26.2373 142.383 24.6267 143.193 23.24C144.004 21.832 145.113 20.7547 146.521 20.008C147.929 19.2613 149.508 18.888 151.257 18.888C153.007 18.888 154.585 19.2613 155.993 20.008C157.401 20.7547 158.511 21.832 159.321 23.24C160.132 24.6267 160.537 26.2373 160.537 28.072C160.537 29.9067 160.121 31.528 159.289 32.936C158.479 34.3227 157.359 35.3893 155.929 36.136C154.521 36.8827 152.943 37.256 151.193 37.256ZM151.193 32.52C152.239 32.52 153.124 32.136 153.849 31.368C154.596 30.6 154.969 29.5013 154.969 28.072C154.969 26.6427 154.607 25.544 153.881 24.776C153.177 24.008 152.303 23.624 151.257 23.624C150.191 23.624 149.305 24.008 148.601 24.776C147.897 25.5227 147.545 26.6213 147.545 28.072C147.545 29.5013 147.887 30.6 148.569 31.368C149.273 32.136 150.148 32.52 151.193 32.52Z" fill="#1A1A1A"/>
</svg>
