<svg width="125" height="125" viewBox="0 0 125 125" fill="none" xmlns="http://www.w3.org/2000/svg">
<path d="M31.7505 118.235H100.938C101.448 118.235 101.936 118.032 102.296 117.671C102.657 117.311 102.86 116.822 102.86 116.312V70.1868C102.858 68.6094 102.47 67.0569 101.729 65.6646L87.4849 38.9556V12.5298C87.4821 9.98242 86.4683 7.54004 84.6668 5.73877C82.8653 3.93728 80.4229 2.92358 77.8758 2.92065H31.7503C29.202 2.92352 26.7598 3.93728 24.9583 5.73877C23.1568 7.54026 22.1441 9.98267 22.1412 12.5298V108.624C22.144 111.172 23.1568 113.614 24.9583 115.416C26.7598 117.217 29.2022 118.231 31.7503 118.234L31.7505 118.235ZM85.5615 87.4854C86.0717 87.4854 86.561 87.2822 86.9205 86.9217C87.281 86.5622 87.4841 86.073 87.4841 85.5627V47.1252L98.3369 67.4749C98.7813 68.3103 99.014 69.2411 99.015 70.188V114.39H87.4842C82.961 114.385 78.6197 112.61 75.3878 109.446C72.1568 106.281 70.2913 101.979 70.1912 97.4573C70.2876 96.9566 70.1817 96.4387 69.8966 96.0172L57.4303 77.5675L57.4293 77.5666C56.5643 76.3001 56.2401 74.7409 56.5271 73.2341C56.8151 71.7272 57.6916 70.3969 58.9628 69.5385C60.2341 68.6792 61.7944 68.3626 63.3002 68.6573C64.8061 68.9529 66.1318 69.8351 66.9843 71.1112C66.9958 71.1283 67.0082 71.1445 67.0196 71.1607L78.2396 86.6886H78.2386C78.601 87.1883 79.1799 87.4839 79.7969 87.4839L85.5615 87.4854ZM56.8945 83.6411H47.125C45.7517 83.6411 44.4824 82.9087 43.7957 81.7195C43.1089 80.5302 43.109 79.0654 43.7957 77.8762C44.4823 76.686 45.7516 75.9536 47.125 75.9536H52.7373C52.9643 77.3021 53.4783 78.5866 54.2441 79.7197L56.8945 83.6411ZM74.031 45.2012V45.2031C74.031 47.3222 72.1838 49.0463 69.9131 49.0463V49.0473C68.5427 49.0625 67.2524 48.4064 66.4561 47.2916C66.0975 46.7756 65.5081 46.4686 64.8796 46.4686C64.2502 46.4686 63.6618 46.7756 63.3023 47.2916C62.4964 48.395 61.2118 49.0473 59.8462 49.0473C58.4796 49.0473 57.1961 48.395 56.3892 47.2916C56.0306 46.7756 55.4412 46.4686 54.8128 46.4686C54.1834 46.4686 53.5949 46.7756 53.2354 47.2916C52.4295 48.395 51.145 49.0473 49.7794 49.0473C48.4127 49.0473 47.1292 48.395 46.3233 47.2916C45.9638 46.7756 45.3744 46.4686 44.7459 46.4686C44.1165 46.4686 43.5281 46.7756 43.1686 47.2916C42.3722 48.4064 41.0819 49.0625 39.7125 49.0473C37.4409 49.0473 35.5936 47.3231 35.5936 45.2031L74.031 45.2012ZM39.6316 41.3599C40.077 39.1912 41.2567 37.2419 42.9724 35.8418C44.6871 34.4418 46.8328 33.675 49.0474 33.6722H60.5781C62.7926 33.6751 64.9382 34.4408 66.6541 35.8418C68.3697 37.2418 69.5493 39.1912 69.9959 41.3599H39.6316ZM39.089 52.8906V52.8649C39.2949 52.8801 39.5028 52.8906 39.7136 52.8906H39.7127C41.538 52.8954 43.3108 52.2869 44.7471 51.1616C46.1852 52.2822 47.9563 52.8916 49.7796 52.8916C51.6028 52.8916 53.374 52.2822 54.812 51.1616C56.2501 52.2822 58.022 52.8916 59.8455 52.8916C61.6689 52.8916 63.4399 52.2822 64.8779 51.1616C66.3142 52.287 68.0872 52.8954 69.9114 52.8906C70.1212 52.8906 70.3291 52.8801 70.536 52.8649V52.8906C71.4029 52.8906 72.1086 53.7527 72.1086 54.8123C72.1086 55.8718 71.4029 56.7339 70.536 56.7339L39.0883 56.7349C38.2214 56.7349 37.5157 55.8728 37.5157 54.8132C37.5166 53.7537 38.2214 52.8906 39.0883 52.8906H39.089ZM39.438 60.5781H70.1875V62.5007C70.1856 63.5612 69.3264 64.4214 68.2649 64.4224H41.3582C40.2977 64.4214 39.4375 63.5612 39.4365 62.5007L39.438 60.5781ZM25.9846 12.5313C25.9865 11.0035 26.595 9.5376 27.6755 8.45703C28.756 7.37556 30.2219 6.76807 31.7505 6.76616H77.8759C79.4037 6.76807 80.8696 7.37556 81.9501 8.45703C83.0316 9.53755 83.6391 11.0034 83.641 12.5313V18.2971H25.9848L25.9846 12.5313ZM25.9846 22.1404L83.6409 22.1413V83.6404H80.7798L70.1521 68.9319C69.9604 68.6515 69.7544 68.3816 69.5351 68.1231C70.8111 67.8332 71.9507 67.1199 72.767 66.0975C73.5843 65.0762 74.0297 63.8078 74.0316 62.5004V59.213C75.2657 58.0839 75.9647 56.4855 75.9533 54.8129C75.958 53.5368 75.5546 52.2943 74.8022 51.2643C76.7248 49.8414 77.8635 47.5956 77.8759 45.2028C77.874 44.1842 77.4687 43.2067 76.7487 42.4867C76.0277 41.7657 75.0511 41.3604 74.0316 41.3594H73.8924C73.426 38.16 71.8248 35.234 69.3807 33.1168C66.9363 30.9996 63.8121 29.8324 60.5782 29.8284H49.0474C45.8135 29.8323 42.6893 30.9996 40.2449 33.1168C37.8006 35.2339 36.1995 38.1597 35.7339 41.3594H35.5938C34.5752 41.3604 33.5977 41.7657 32.8777 42.4867C32.1567 43.2067 31.7514 44.1842 31.7504 45.2028C31.7619 47.5955 32.9015 49.8414 34.8242 51.2643C34.0708 52.2943 33.6674 53.5369 33.6721 54.8129C33.6616 56.4856 34.3597 58.0839 35.5938 59.213V62.5004C35.5957 64.0281 36.2041 65.494 37.2846 66.5753C38.3652 67.6558 39.831 68.2633 41.3596 68.2652H54.7617C53.8481 69.3877 53.2005 70.7019 52.8658 72.1095H47.1256C44.379 72.1095 41.8411 73.5743 40.4678 75.9527C39.0946 78.3312 39.0946 81.2618 40.4678 83.6402C41.8411 86.0187 44.379 87.4845 47.1256 87.4845H59.4928L64.6864 95.172H25.9852L25.9846 22.1404ZM25.9846 99.0154H66.4363C67.0047 105.202 70.2654 110.825 75.3513 114.391H31.7503C30.2215 114.389 28.7556 113.781 27.6753 112.7C26.5948 111.619 25.9863 110.153 25.9844 108.625L25.9846 99.0154Z" fill="#2F471B"/>
<path d="M45.2026 12.5293C45.2026 13.5908 44.3424 14.4519 43.281 14.4519C42.2195 14.4519 41.3593 13.5908 41.3593 12.5293C41.3593 11.4679 42.2195 10.6077 43.281 10.6077C44.3424 10.6077 45.2026 11.4679 45.2026 12.5293Z" fill="#2F471B"/>
<path d="M66.3428 10.6079H52.8894C51.828 10.6079 50.9678 11.4681 50.9678 12.5296C50.9678 13.591 51.828 14.4522 52.8894 14.4522H66.3428C67.4042 14.4522 68.2645 13.591 68.2645 12.5296C68.2645 11.4681 67.4042 10.6079 66.3428 10.6079Z" fill="#2F471B"/>
<path d="M54.812 112.468C56.3407 112.468 57.8076 111.861 58.8889 110.779C59.9694 109.698 60.5769 108.232 60.5769 106.702C60.5769 105.174 59.9694 103.707 58.8889 102.625C57.8074 101.544 56.3406 100.937 54.812 100.937C53.2823 100.937 51.8157 101.544 50.7351 102.625C49.6536 103.707 49.0461 105.174 49.0461 106.702C49.0481 108.231 49.6555 109.697 50.737 110.777C51.8175 111.858 53.2834 112.466 54.812 112.468ZM54.812 104.781C55.5893 104.781 56.2902 105.249 56.5877 105.967C56.8843 106.685 56.7203 107.512 56.171 108.061C55.6207 108.611 54.7948 108.776 54.0758 108.478C53.3577 108.181 52.8894 107.48 52.8894 106.702C52.8913 105.642 53.7506 104.782 54.812 104.781Z" fill="#2F471B"/>
</svg>
