<svg width="151" height="150" viewBox="0 0 151 150" fill="none" xmlns="http://www.w3.org/2000/svg">
<path d="M38.6005 141.882H121.625C122.237 141.882 122.823 141.638 123.256 141.205C123.688 140.773 123.932 140.187 123.932 139.575V84.2241C123.93 82.3312 123.464 80.4682 122.575 78.7974L105.482 46.7467V15.0357C105.478 11.9789 104.262 9.04802 102.1 6.8865C99.9383 4.72471 97.0074 3.50828 93.9509 3.50476H38.6003C35.5423 3.50819 32.6117 4.72471 30.4499 6.8865C28.2881 9.04829 27.0729 11.9792 27.0693 15.0357V130.348C27.0728 133.406 28.2881 136.337 30.4499 138.499C32.6117 140.66 35.5426 141.877 38.6003 141.88L38.6005 141.882ZM103.174 104.982C103.786 104.982 104.373 104.739 104.805 104.306C105.237 103.875 105.481 103.288 105.481 102.675V56.5503L118.504 80.9698C119.038 81.9723 119.317 83.0892 119.318 84.2256V137.268H105.481C100.053 137.262 94.8436 135.132 90.9653 131.335C87.0881 127.538 84.8495 122.374 84.7294 116.949C84.845 116.348 84.718 115.726 84.3758 115.221L69.4162 93.081L69.4151 93.0799C68.3771 91.5601 67.988 89.6891 68.3325 87.8809C68.6781 86.0727 69.7298 84.4763 71.2553 83.4462C72.7808 82.4151 74.6532 82.0351 76.4602 82.3887C78.2672 82.7435 79.8581 83.8021 80.8811 85.3334C80.8948 85.354 80.9097 85.3734 80.9234 85.3929L94.3874 104.026H94.3863C94.8211 104.626 95.5158 104.981 96.2562 104.981L103.174 104.982ZM68.7734 100.369H57.0499C55.402 100.369 53.8788 99.4904 53.0547 98.0633C52.2306 96.6362 52.2307 94.8785 53.0547 93.4514C53.8787 92.0232 55.4019 91.1443 57.0499 91.1443H63.7847C64.0571 92.7625 64.6739 94.304 65.5929 95.6636L68.7734 100.369ZM89.3371 54.2414V54.2437C89.3371 56.7866 87.1204 58.8556 84.3956 58.8556V58.8567C82.7511 58.875 81.2029 58.0877 80.2472 56.7499C79.8169 56.1307 79.1097 55.7622 78.3555 55.7622C77.6002 55.7622 76.8941 56.1307 76.4627 56.7499C75.4956 58.0739 73.9541 58.8567 72.3154 58.8567C70.6754 58.8567 69.1352 58.0739 68.167 56.7499C67.7366 56.1307 67.0294 55.7622 66.2753 55.7622C65.52 55.7622 64.8138 56.1307 64.3824 56.7499C63.4154 58.0739 61.8739 58.8567 60.2352 58.8567C58.5952 58.8567 57.055 58.0739 56.0879 56.7499C55.6564 56.1307 54.9492 55.7622 54.195 55.7622C53.4397 55.7622 52.7336 56.1307 52.3022 56.7499C51.3466 58.0877 49.7982 58.875 48.1549 58.8567C45.429 58.8567 43.2123 56.7876 43.2123 54.2436L89.3371 54.2414ZM48.0578 49.6318C48.5923 47.0294 50.0079 44.6903 52.0668 43.0101C54.1245 41.3301 56.6993 40.41 59.3568 40.4066H73.1937C75.851 40.41 78.4258 41.329 80.4848 43.0101C82.5436 44.6901 83.9591 47.0294 84.495 49.6318H48.0578ZM47.4067 63.4687V63.4378C47.6539 63.4561 47.9033 63.4687 48.1563 63.4687H48.1551C50.3455 63.4745 52.4729 62.7443 54.1964 61.3939C55.9222 62.7386 58.0475 63.4699 60.2354 63.4699C62.4233 63.4699 64.5488 62.7386 66.2743 61.3939C68.0001 62.7386 70.1263 63.4699 72.3145 63.4699C74.5027 63.4699 76.6279 62.7386 78.3534 61.3939C80.0769 62.7443 82.2045 63.4745 84.3936 63.4687C84.6454 63.4687 84.8948 63.4561 85.1432 63.4378V63.4687C86.1834 63.4687 87.0303 64.5033 87.0303 65.7747C87.0303 67.0461 86.1834 68.0807 85.1432 68.0807L47.4059 68.0818C46.3656 68.0818 45.5187 67.0473 45.5187 65.7759C45.5199 64.5044 46.3656 63.4687 47.4059 63.4687H47.4067ZM47.8255 72.6937H84.7249V75.0009C84.7226 76.2735 83.6915 77.3057 82.4178 77.3068H50.1297C48.8571 77.3057 47.8249 76.2735 47.8237 75.0009L47.8255 72.6937ZM31.6815 15.0375C31.6838 13.2041 32.4139 11.4451 33.7105 10.1484C35.0071 8.85065 36.7662 8.12166 38.6005 8.11937H93.951C95.7844 8.12166 97.5434 8.85065 98.8401 10.1484C100.138 11.445 100.867 13.2041 100.869 15.0375V21.9565H31.6817L31.6815 15.0375ZM31.6815 26.5684L100.869 26.5696V100.368H97.4357L84.6824 82.7182C84.4524 82.3818 84.2052 82.0579 83.942 81.7477C85.4733 81.3998 86.8408 80.5438 87.8204 79.317C88.8011 78.0914 89.3356 76.5693 89.3378 75.0004V71.0556C90.8187 69.7006 91.6576 67.7825 91.6438 65.7754C91.6496 64.2442 91.1655 62.7532 90.2625 61.5171C92.5697 59.8097 93.9361 57.1147 93.951 54.2433C93.9487 53.0211 93.4623 51.848 92.5983 50.984C91.7332 50.1188 90.5613 49.6325 89.3379 49.6313H89.1708C88.6112 45.792 86.6897 42.2807 83.7567 39.7401C80.8235 37.1995 77.0744 35.7988 73.1937 35.7941H59.3568C55.4762 35.7987 51.727 37.1994 48.7938 39.7401C45.8606 42.2807 43.9393 45.7917 43.3807 49.6313H43.2124C41.9902 49.6325 40.8172 50.1188 39.9532 50.984C39.088 51.848 38.6016 53.0211 38.6005 54.2433C38.6142 57.1146 39.9817 59.8097 42.2889 61.5171C41.3849 62.7531 40.9008 64.2443 40.9065 65.7754C40.8939 67.7827 41.7316 69.7006 43.2125 71.0556V75.0004C43.2148 76.8338 43.9449 78.5928 45.2415 79.8904C46.5381 81.187 48.2972 81.916 50.1314 81.9183H66.214C65.1176 83.2653 64.3406 84.8422 63.9389 86.5313H57.0506C53.7547 86.5313 50.7093 88.2892 49.0613 91.1433C47.4134 93.9974 47.4134 97.5142 49.0613 100.368C50.7093 103.222 53.7547 104.981 57.0506 104.981H71.8912L78.1235 114.206H31.6821L31.6815 26.5684ZM31.6815 118.818H80.2235C80.9055 126.242 84.8184 132.99 90.9215 137.269H38.6002C36.7658 137.266 35.0067 136.537 33.7103 135.24C32.4137 133.943 31.6835 132.184 31.6813 130.35L31.6815 118.818Z" fill="black"/>
<path d="M54.7431 15.0351C54.7431 16.3089 53.7108 17.3422 52.4371 17.3422C51.1633 17.3422 50.1311 16.3089 50.1311 15.0351C50.1311 13.7614 51.1633 12.7291 52.4371 12.7291C53.7108 12.7291 54.7431 13.7614 54.7431 15.0351Z" fill="black"/>
<path d="M80.1113 12.7295H63.9672C62.6935 12.7295 61.6613 13.7617 61.6613 15.0355C61.6613 16.3092 62.6935 17.3426 63.9672 17.3426H80.1113C81.385 17.3426 82.4173 16.3092 82.4173 15.0355C82.4173 13.7617 81.385 12.7295 80.1113 12.7295Z" fill="black"/>
<path d="M66.2744 134.962C68.1089 134.962 69.8691 134.233 71.1667 132.935C72.4633 131.637 73.1923 129.878 73.1923 128.043C73.1923 126.208 72.4633 124.448 71.1667 123.151C69.8689 121.853 68.1087 121.124 66.2744 121.124C64.4388 121.124 62.6788 121.853 61.3821 123.151C60.0843 124.448 59.3553 126.209 59.3553 128.043C59.3576 129.877 60.0866 131.636 61.3844 132.933C62.681 134.229 64.4401 134.96 66.2744 134.962ZM66.2744 125.737C67.2071 125.737 68.0482 126.299 68.4053 127.161C68.7612 128.022 68.5643 129.014 67.9052 129.674C67.2448 130.333 66.2538 130.531 65.3909 130.174C64.5292 129.817 63.9673 128.976 63.9673 128.043C63.9696 126.77 65.0007 125.738 66.2744 125.737Z" fill="black"/>
</svg>
