<svg width="151" height="150" viewBox="0 0 151 150" fill="none" xmlns="http://www.w3.org/2000/svg">
<path d="M77.8057 100.368H36.292C35.0183 100.368 33.9849 101.4 33.9849 102.674V128.043C33.9849 128.656 34.2286 129.242 34.6612 129.674C35.0938 130.107 35.6797 130.349 36.292 130.349H77.8057C78.4168 130.349 79.0038 130.107 79.4364 129.674C79.869 129.242 80.1116 128.656 80.1116 128.043V102.674C80.1116 102.063 79.869 101.476 79.4364 101.043C79.0038 100.612 78.4168 100.368 77.8057 100.368ZM75.4997 125.738H38.6003V104.981H75.4997V125.738Z" fill="black"/>
<path d="M142.382 38.1006C142.993 38.1006 143.58 37.8569 144.013 37.4254C144.444 36.9928 144.688 36.4057 144.688 35.7946V21.9565C144.688 21.3454 144.444 20.7584 144.013 20.3258C143.58 19.8932 142.993 19.6506 142.382 19.6506H114.707C113.433 19.6506 112.399 20.6828 112.399 21.9565V51.939H93.9503V8.11963C93.9503 7.50738 93.7065 6.92144 93.2739 6.48885C92.8413 6.05625 92.2554 5.8125 91.6432 5.8125H77.8062C76.5325 5.8125 75.5002 6.84589 75.5002 8.11963V51.939H43.678L46.753 47.3271H63.9684C64.5807 47.3271 65.1666 47.0833 65.5992 46.6518C66.0318 46.2192 66.2755 45.6322 66.2755 45.0211V8.12165C66.2755 7.5094 66.0318 6.92346 65.5992 6.49087C65.1666 6.05827 64.5807 5.81452 63.9684 5.81452H8.61783C7.34409 5.81452 6.3107 6.84791 6.3107 8.12165V45.0211C6.3107 45.6322 6.55446 46.2192 6.98705 46.6518C7.41965 47.0833 8.00558 47.3271 8.61783 47.3271H25.8333L28.9083 51.939H8.61783C7.34409 51.939 6.3107 52.9712 6.3107 54.245V68.083C6.3107 68.6941 6.55446 69.2812 6.98705 69.7138C7.41965 70.1464 8.00558 70.389 8.61783 70.389H75.4997V86.5331H8.61783C7.34409 86.5331 6.3107 87.5653 6.3107 88.8391V102.676C6.3107 103.288 6.55446 103.875 6.98705 104.307C7.41965 104.739 8.00558 104.983 8.61783 104.983H20.1488V125.739H8.61783C7.34409 125.739 6.3107 126.772 6.3107 128.045V141.883C6.3107 142.495 6.55446 143.082 6.98705 143.514C7.41965 143.946 8.00558 144.189 8.61783 144.189H142.382C142.993 144.189 143.58 143.946 144.012 143.514C144.444 143.082 144.687 142.495 144.687 141.883V128.045C144.687 127.434 144.444 126.847 144.012 126.415C143.58 125.982 142.993 125.739 142.382 125.739H129.367C132.589 121.205 135.462 115.001 135.462 107.289C135.462 101.521 132.385 96.1917 127.39 93.3077C122.395 90.4238 116.241 90.4238 111.247 93.3077C106.251 96.1916 103.174 101.521 103.174 107.289C103.174 115.001 106.046 121.205 109.269 125.739H93.95V70.3888H142.381C142.992 70.3888 143.579 70.1461 144.011 69.7136C144.443 69.281 144.687 68.6939 144.687 68.0828V54.2447C144.687 53.6336 144.443 53.0465 144.011 52.6139C143.579 52.1825 142.992 51.9387 142.381 51.9387H130.848V38.1018L142.382 38.1006ZM27.0693 42.7125H10.9253V10.4244H61.6616V42.7125H45.5184C44.7471 42.7125 44.0273 43.0982 43.5993 43.7402L36.2932 54.699L28.9863 43.7402C28.5594 43.0982 27.8384 42.7125 27.0682 42.7125H27.0693ZM107.788 107.289C107.788 103.169 109.985 99.3624 113.554 97.3026C117.122 95.2426 121.518 95.2426 125.085 97.3026C128.653 99.3625 130.85 103.169 130.85 107.289C130.85 119.149 122.556 127.107 119.315 129.763C116.068 127.116 107.788 119.198 107.788 107.289ZM128.544 56.5524H140.075V65.7774H91.6446C90.3709 65.7774 89.3386 66.8096 89.3386 68.0834V128.045C89.3386 128.658 89.5812 129.243 90.0138 129.676C90.4464 130.109 91.0335 130.351 91.6446 130.351H113.126C114.624 131.916 116.27 133.331 118.04 134.576C118.815 135.094 119.824 135.094 120.599 134.576C122.371 133.331 124.016 131.916 125.513 130.351H140.076V139.576H10.9263V130.351H22.4572C23.0695 130.351 23.6554 130.109 24.088 129.676C24.5206 129.243 24.7632 128.658 24.7632 128.045V102.676C24.7632 102.065 24.5206 101.478 24.088 101.045C23.6554 100.614 23.0695 100.37 22.4572 100.37H10.9263V91.145H77.8081C78.4192 91.145 79.0063 90.9023 79.4389 90.4697C79.8715 90.0372 80.1141 89.4512 80.1141 88.839V68.0827C80.1141 67.4705 79.8715 66.8845 79.4389 66.4519C79.0063 66.0193 78.4192 65.7767 77.8081 65.7767H10.9263V56.5517H31.9858L34.3764 60.1371C34.8044 60.7779 35.5243 61.1636 36.2956 61.1636C37.0658 61.1636 37.7856 60.7779 38.2137 60.1371L40.6043 56.5517H77.8084C78.4195 56.5517 79.0066 56.308 79.4392 55.8754C79.8718 55.4439 80.1144 54.8568 80.1144 54.2446V10.4253H89.3394V54.2446C89.3394 54.8568 89.582 55.444 90.0146 55.8754C90.4472 56.308 91.0343 56.5517 91.6454 56.5517H114.709C115.32 56.5517 115.907 56.308 116.34 55.8754C116.772 55.4439 117.015 54.8568 117.015 54.2446V24.2622H140.077V33.4872H128.546C127.272 33.4872 126.24 34.5206 126.24 35.7943V54.2446V54.2435C126.24 54.8557 126.483 55.4428 126.915 55.8742C127.348 56.3068 127.935 56.5506 128.546 56.5506L128.544 56.5524Z" fill="black"/>
<path d="M57.0488 35.795C57.0488 35.1827 56.805 34.5968 56.3725 34.1642C55.941 33.7316 55.3539 33.4878 54.7417 33.4878H52.2675H52.2686C51.7651 30.0419 50.1629 26.8492 47.7001 24.3865C45.2372 21.9238 42.0455 20.3215 38.5987 19.8179V17.3448C38.5987 16.0711 37.5665 15.0377 36.2927 15.0377C35.019 15.0377 33.9856 16.0711 33.9856 17.3448V19.8191V19.8179C30.5397 20.3215 27.3469 21.9236 24.8842 24.3865C22.4215 26.8493 20.8193 30.0422 20.3157 33.4878H17.8426C16.5689 33.4878 15.5355 34.5212 15.5355 35.795C15.5355 37.0687 16.5689 38.1009 17.8426 38.1009H54.742C55.3543 38.1009 55.9414 37.8572 56.3728 37.4257C56.8054 36.9931 57.0491 36.4061 57.0491 35.795H57.0488ZM24.9922 33.4878C25.7051 29.9872 28.001 27.015 31.2075 25.4403C34.414 23.8644 38.169 23.8644 41.3756 25.4403C44.5821 27.015 46.8778 29.9872 47.5909 33.4878H24.9922Z" fill="black"/>
<path d="M126.236 107.288C126.236 105.454 125.507 103.693 124.21 102.396C122.912 101.098 121.153 100.369 119.317 100.369C117.483 100.369 115.723 101.098 114.425 102.396C113.127 103.694 112.398 105.454 112.398 107.288C112.398 109.122 113.127 110.883 114.425 112.18C115.723 113.478 117.483 114.207 119.317 114.207C121.152 114.205 122.911 113.475 124.207 112.178C125.504 110.88 126.234 109.122 126.236 107.288ZM117.011 107.288C117.011 106.355 117.573 105.514 118.435 105.157C119.297 104.8 120.289 104.998 120.948 105.657C121.607 106.316 121.805 107.309 121.448 108.17C121.091 109.032 120.25 109.594 119.317 109.594C118.045 109.593 117.012 108.561 117.011 107.288Z" fill="black"/>
</svg>
