<svg width="125" height="125" viewBox="0 0 125 125" fill="none" xmlns="http://www.w3.org/2000/svg">
<path d="M64.4214 83.6401H29.8267C28.7652 83.6401 27.9041 84.5003 27.9041 85.5618V106.703C27.9041 107.213 28.1072 107.701 28.4677 108.062C28.8282 108.422 29.3165 108.625 29.8267 108.625H64.4214C64.9306 108.625 65.4199 108.422 65.7804 108.062C66.1409 107.701 66.343 107.213 66.343 106.703V85.5618C66.343 85.0525 66.1409 84.5633 65.7804 84.2028C65.4199 83.8433 64.9306 83.6401 64.4214 83.6401ZM62.4997 104.781H31.7502V87.4844H62.4997V104.781Z" fill="#2F471B"/>
<path d="M118.235 31.7505C118.744 31.7505 119.233 31.5474 119.594 31.1878C119.953 30.8273 120.157 30.3381 120.157 29.8289V18.2971C120.157 17.7879 119.953 17.2986 119.594 16.9381C119.233 16.5776 118.744 16.3755 118.235 16.3755H95.1721C94.1107 16.3755 93.2495 17.2357 93.2495 18.2971V43.2825H77.8753V6.76636C77.8753 6.25615 77.6721 5.76787 77.3116 5.40737C76.9511 5.04687 76.4629 4.84375 75.9527 4.84375H64.4219C63.3605 4.84375 62.5002 5.70491 62.5002 6.76636V43.2825H35.9817L38.5442 39.4392H52.8904C53.4006 39.4392 53.8889 39.2361 54.2494 38.8765C54.6099 38.516 54.813 38.0268 54.813 37.5176V6.76804C54.813 6.25784 54.6099 5.76955 54.2494 5.40906C53.8889 5.04856 53.4006 4.84543 52.8904 4.84543H6.76489C5.70344 4.84543 4.84229 5.70659 4.84229 6.76804V37.5176C4.84229 38.0268 5.04542 38.516 5.40591 38.8765C5.76641 39.2361 6.25469 39.4392 6.76489 39.4392H21.1111L23.6736 43.2825H6.76489C5.70344 43.2825 4.84229 44.1427 4.84229 45.2041V56.7359C4.84229 57.2451 5.04542 57.7343 5.40591 58.0948C5.76641 58.4553 6.25469 58.6575 6.76489 58.6575H62.4998V72.1109H6.76489C5.70344 72.1109 4.84229 72.9711 4.84229 74.0325V85.5633C4.84229 86.0735 5.04542 86.5628 5.40591 86.9223C5.76641 87.2828 6.25469 87.4859 6.76489 87.4859H16.374V104.783H6.76489C5.70344 104.783 4.84229 105.643 4.84229 106.704V118.236C4.84229 118.745 5.04542 119.235 5.40591 119.595C5.76641 119.955 6.25469 120.158 6.76489 120.158H118.235C118.744 120.158 119.233 119.955 119.594 119.595C119.953 119.235 120.156 118.745 120.156 118.236V106.704C120.156 106.195 119.953 105.706 119.594 105.345C119.233 104.985 118.744 104.783 118.235 104.783H107.389C110.074 101.004 112.469 95.8345 112.469 89.4075C112.469 84.6009 109.904 80.1597 105.741 77.7564C101.58 75.3531 96.4507 75.3531 92.2888 77.7564C88.126 80.1597 85.5615 84.6009 85.5615 89.4075C85.5615 95.8343 87.9552 101.004 90.6409 104.783H77.875V58.6573H118.234C118.743 58.6573 119.232 58.4551 119.593 58.0946C119.952 57.7341 120.156 57.2449 120.156 56.7356V45.2039C120.156 44.6946 119.952 44.2054 119.593 43.8449C119.232 43.4854 118.743 43.2822 118.234 43.2822H108.624V31.7515L118.235 31.7505ZM22.1411 35.5938H8.68777V8.68704H50.968V35.5938H37.5154C36.8726 35.5938 36.2728 35.9152 35.9161 36.4502L29.8277 45.5825L23.7386 36.4502C23.3829 35.9152 22.7821 35.5938 22.1402 35.5938H22.1411ZM89.4068 89.4072C89.4068 85.9741 91.2378 82.802 94.2115 81.0855C97.1851 79.3689 100.848 79.3689 103.821 81.0855C106.794 82.8021 108.625 85.9739 108.625 89.4072C108.625 99.291 101.713 105.922 99.0122 108.136C96.3067 105.93 89.4068 99.3313 89.4068 89.4072ZM106.704 47.127H116.313V54.8145H75.9539C74.8924 54.8145 74.0322 55.6747 74.0322 56.7361V106.704C74.0322 107.215 74.2344 107.703 74.5949 108.063C74.9554 108.424 75.4446 108.626 75.9539 108.626H93.8553C95.1036 109.93 96.4749 111.109 97.9502 112.147C98.5958 112.578 99.437 112.578 100.083 112.147C101.559 111.109 102.93 109.93 104.178 108.626H116.313V116.314H8.6886V108.626H18.2977C18.8079 108.626 19.2962 108.424 19.6567 108.063C20.0172 107.703 20.2194 107.215 20.2194 106.704V85.5633C20.2194 85.054 20.0172 84.5648 19.6567 84.2043C19.2962 83.8447 18.8079 83.6416 18.2977 83.6416H8.6886V75.9541H64.4235C64.9327 75.9541 65.4219 75.752 65.7824 75.3915C66.1429 75.031 66.3451 74.5427 66.3451 74.0325V56.7356C66.3451 56.2254 66.1429 55.7371 65.7824 55.3766C65.4219 55.0161 64.9327 54.8139 64.4235 54.8139H8.6886V47.1264H26.2382L28.2304 50.1142C28.5871 50.6483 29.1869 50.9697 29.8297 50.9697C30.4715 50.9697 31.0714 50.6483 31.4281 50.1142L33.4203 47.1264H64.4237C64.933 47.1264 65.4222 46.9233 65.7827 46.5628C66.1432 46.2033 66.3454 45.714 66.3454 45.2038V8.68772H74.0329V45.2038C74.0329 45.714 74.2351 46.2033 74.5956 46.5628C74.9561 46.9233 75.4453 47.1264 75.9545 47.1264H95.174C95.6833 47.1264 96.1725 46.9233 96.533 46.5628C96.8935 46.2033 97.0957 45.714 97.0957 45.2038V20.2185H116.314V27.906H106.705C105.644 27.906 104.783 28.7671 104.783 29.8286V45.2038V45.2029C104.783 45.7131 104.986 46.2023 105.346 46.5619C105.707 46.9224 106.196 47.1255 106.705 47.1255L106.704 47.127Z" fill="#2F471B"/>
<path d="M47.1241 29.8291C47.1241 29.3189 46.9209 28.8306 46.5604 28.4701C46.2009 28.1096 45.7117 27.9065 45.2015 27.9065H43.1396H43.1406C42.7209 25.0349 41.3858 22.3742 39.3334 20.322C37.2811 18.2698 34.6213 16.9345 31.749 16.5149V14.454C31.749 13.3925 30.8888 12.5314 29.8273 12.5314C28.7659 12.5314 27.9047 13.3925 27.9047 14.454V16.5158V16.5149C25.0331 16.9345 22.3725 18.2696 20.3202 20.322C18.268 22.3744 16.9328 25.0351 16.5131 27.9065H14.4522C13.3908 27.9065 12.5296 28.7676 12.5296 29.8291C12.5296 30.8905 13.3908 31.7507 14.4522 31.7507H45.2017C45.7119 31.7507 46.2012 31.5476 46.5607 31.1881C46.9212 30.8276 47.1243 30.3383 47.1243 29.8291H47.1241ZM20.4102 27.9065C21.0043 24.9892 22.9175 22.5124 25.5896 21.2002C28.2618 19.887 31.3909 19.887 34.063 21.2002C36.7351 22.5124 38.6482 24.9892 39.2425 27.9065H20.4102Z" fill="#2F471B"/>
<path d="M104.78 89.4067C104.78 87.878 104.173 86.4111 103.091 85.3298C102.01 84.2484 100.544 83.6409 99.0144 83.6409C97.4857 83.6409 96.0188 84.2484 94.9375 85.3298C93.856 86.4113 93.2485 87.8782 93.2485 89.4067C93.2485 90.9353 93.856 92.4023 94.9375 93.4836C96.019 94.5651 97.4858 95.1726 99.0144 95.1726C100.543 95.1707 102.009 94.5623 103.089 93.4817C104.17 92.4003 104.778 90.9353 104.78 89.4067ZM97.0928 89.4067C97.0928 88.6295 97.561 87.9285 98.2792 87.631C98.9973 87.3335 99.8241 87.4984 100.373 88.0478C100.923 88.5971 101.088 89.4239 100.79 90.142C100.493 90.8601 99.7917 91.3284 99.0144 91.3284C97.9539 91.3274 97.0937 90.4672 97.0928 89.4067Z" fill="#2F471B"/>
</svg>
